<svg viewBox="0 0 24 24" xmlns="http://www.w3.org/2000/svg" xmlns:xlink="http://www.w3.org/1999/xlink" fill="currentColor" width="1em" height="1em" aria-hidden="true" class="x1lliihq x1heor9g xxk0z11 xvy4d1p" role="img"><path fill-rule="evenodd" clip-rule="evenodd" d="M12 23c6.075 0 11-4.925 11-11S18.075 1 12 1 1 5.925 1 12s4.925 11 11 11zm.83-2.473c-.36.381-.641.473-.83.473-.189 0-.47-.091-.83-.473-.363-.384-.736-.992-1.07-1.827-.417-1.043-.743-2.361-.929-3.856.904.102 1.853.156 2.829.156.976 0 1.925-.054 2.829-.156-.186 1.495-.512 2.813-.929 3.856-.334.835-.707 1.444-1.07 1.827zm2.156-7.717c-.933.123-1.937.19-2.986.19-1.049 0-2.053-.067-2.987-.19A24.277 24.277 0 0 1 9 12c0-2.667.434-5.035 1.1-6.7.334-.835.707-1.443 1.07-1.827.36-.381.641-.473.83-.473.189 0 .47.091.83.473.363.384.736.992 1.07 1.827.666 1.665 1.1 4.033 1.1 6.7 0 .273-.005.544-.014.81zm1.891 1.706c-.185 1.87-.575 3.563-1.12 4.926-.128.32-.267.627-.416.918a9.009 9.009 0 0 0 5.603-7.35c-.598.372-1.3.692-2.071.959a16.62 16.62 0 0 1-1.996.547zm3.986-4.088c-.123.203-.344.446-.71.707-.47.337-1.12.662-1.935.944-.379.132-.788.252-1.222.359C17 12.292 17 12.146 17 12c0-2.856-.461-5.488-1.243-7.442-.128-.32-.267-.627-.416-.918a9.014 9.014 0 0 1 5.522 6.788zm-13.86 2.01A26.392 26.392 0 0 1 7 12c0-2.856.461-5.488 1.243-7.442.128-.32.267-.627.416-.918a9.014 9.014 0 0 0-5.522 6.788l.019.03c.36.56 1.33 1.22 2.97 1.735.28.088.572.17.878.245zm-3.947.573A9.009 9.009 0 0 0 8.66 20.36c-.15-.29-.288-.598-.416-.918-.545-1.363-.935-3.057-1.12-4.926a17.221 17.221 0 0 1-1.596-.415c-.908-.285-1.758-.647-2.47-1.09z"></path></svg>